<svg width="301" height="398" viewBox="0 0 301 398" fill="none" xmlns="http://www.w3.org/2000/svg">
<path d="M9.7219 387.765C8.58103 387.965 8.27313 388.13 7.4809 387.59C6.9908 385.83 7.2121 373.895 7.19233 371.503L7.12733 312.35L7.07595 190.68L7.0472 150.289C7.0422 141.711 6.83508 131.954 7.40985 123.449C8.18228 111.158 10.7618 99.0478 15.0652 87.5088C26.5833 57.2098 49.5045 32.6233 78.923 19.0123C93.1652 12.5881 106.448 9.21025 121.99 7.55478C124.987 7.23913 127.997 7.05568 131.01 7.005C144.474 6.74903 158.409 6.85492 171.897 6.82885L254.062 6.81367C258.523 6.81132 291.038 6.4129 292.41 6.93232C293.27 29.128 295.055 43.9923 284.318 65.3475C280.645 72.7063 275.965 79.5182 270.415 85.5882C255.15 102.359 233.852 112.386 211.199 113.467C205.438 113.685 198.662 113.533 192.822 113.53L159.658 113.515C153.211 113.513 141.043 113.065 135.198 114.433C129.971 115.642 125.221 118.379 121.554 122.295C114.946 129.404 114.177 136.66 113.776 145.801C119.237 144.904 124.384 143.707 130.012 143.585C140.299 143.361 150.634 143.426 160.918 143.408L220.531 143.468C222.893 143.476 245.555 143.27 246.583 143.667C248.769 172.838 246.763 198.024 226.753 221.208C212.575 237.636 191.365 248.842 169.637 250.4C163.138 250.867 156.573 250.73 150.062 250.723C138.243 250.708 129.378 251.035 121.1 260.59C114.017 268.767 113.955 277.985 113.935 288.235C113.92 295.575 114.213 303.13 113.504 310.44C112.12 324.71 107.372 337.84 99.0898 349.58C93.1663 358.105 85.829 365.558 77.395 371.613C65.3765 380.195 49.738 386.943 34.9148 387.878C27.3368 388.355 17.3959 388.033 9.7219 387.765Z" fill="#E7286B"/>
<path d="M246.583 143.667C248.769 172.838 246.763 198.024 226.753 221.208C212.575 237.636 191.365 248.842 169.637 250.4C163.138 250.867 156.573 250.73 150.062 250.723C138.243 250.708 129.378 251.035 121.1 260.59C114.017 268.767 113.955 277.985 113.934 288.235C113.92 295.575 114.213 303.13 113.504 310.44C112.12 324.71 107.371 337.84 99.0897 349.58C93.1662 358.105 85.829 365.557 77.395 371.612C65.3765 380.195 49.738 386.943 34.9147 387.878C27.3367 388.355 17.3959 388.033 9.72189 387.765C10.6256 387.035 18.6991 385.268 20.5181 384.695C34.0855 380.425 46.4525 372.635 56.2845 362.413C63.177 355.255 68.6827 346.882 72.5222 337.717C76.4995 328.357 78.7915 318.37 79.2925 308.212C80.45 286.892 75.9632 272.428 87.0592 251.788C91.7527 243.11 98.344 235.602 106.342 229.826C134.587 209.423 157.381 223.221 187.684 214.033C212.761 206.661 232.756 187.667 241.404 163.001C242.414 160.105 243.288 157.163 244.02 154.184C244.661 151.493 245.339 145.836 246.583 143.667Z" fill="#4C4F50"/>
<path d="M292.41 6.93233C293.27 29.128 295.055 43.9923 284.318 65.3475C280.645 72.7063 275.965 79.5182 270.415 85.5882C255.15 102.359 233.852 112.386 211.199 113.467C205.438 113.685 198.662 113.533 192.822 113.53L159.658 113.515C153.211 113.513 141.043 113.065 135.198 114.433C129.971 115.642 125.221 118.379 121.554 122.295C114.946 129.404 114.177 136.66 113.776 145.801C112.018 145.971 108.936 146.74 107.172 147.15C96.7982 149.562 88.6225 152.9 79.2125 157.806C79.4568 145.889 78.342 137.585 81.8235 125.989C85.0308 115.105 91.1145 105.288 99.434 97.5725C109.855 88.0145 123.143 82.17 137.231 80.9482C143.738 80.3417 151.859 80.5153 158.521 80.5048L194.411 80.4715C203.815 80.4752 214.547 80.874 223.665 79.3432C232.181 77.9055 240.403 75.0753 247.999 70.9658C264.93 61.8343 279.485 45.9018 286.385 27.836C289.218 20.4247 290.233 14.1874 292.41 6.93233Z" fill="#4C4F50"/>
</svg>
